<svg xmlns="http://www.w3.org/2000/svg"  viewBox="0 0 512 512" width="64px" height="64px"><path fill="#3e3d42" d="M496,84v28H16V84A19.994,19.994,0,0,1,36,64H476A19.994,19.994,0,0,1,496,84Z"/><path fill="#d8d7da" d="M496,112V428a19.994,19.994,0,0,1-20,20H36a19.994,19.994,0,0,1-20-20V112Z"/><rect width="240" height="192" x="136" y="184" fill="#ff5023" rx="40" ry="40"/><polygon fill="#d8d7da" points="200 336 200 224 312 280 200 336"/><g><path d="M476,56H36A28.031,28.031,0,0,0,8,84V428a28.031,28.031,0,0,0,28,28H476a28.031,28.031,0,0,0,28-28V84A28.031,28.031,0,0,0,476,56Zm12,372a12.01,12.01,0,0,1-12,12H36a12.01,12.01,0,0,1-12-12V120H488Zm0-324H24V84A12.01,12.01,0,0,1,36,72H476a12.01,12.01,0,0,1,12,12Z"/><path d="M40,96h8a8,8,0,0,0,0-16H40a8,8,0,0,0,0,16Z"/><path d="M72,96h8a8,8,0,0,0,0-16H72a8,8,0,0,0,0,16Z"/><path d="M104,96h8a8,8,0,0,0,0-16h-8a8,8,0,0,0,0,16Z"/><path d="M336,176H176a48.054,48.054,0,0,0-48,48V336a48.054,48.054,0,0,0,48,48H336a48.054,48.054,0,0,0,48-48V224A48.054,48.054,0,0,0,336,176Zm32,160a32.036,32.036,0,0,1-32,32H176a32.036,32.036,0,0,1-32-32V224a32.036,32.036,0,0,1,32-32H336a32.036,32.036,0,0,1,32,32Z"/><path d="M315.578,272.845l-112-56A8,8,0,0,0,192,224V336a8,8,0,0,0,11.578,7.155l112-56a8,8,0,0,0,0-14.31ZM208,323.056V236.944L294.111,280Z"/></g></svg>